<?xml version="1.0" encoding="UTF-8" standalone="no"?>
<!-- Creator: fig2dev Version 3.2 Patchlevel 5e -->

<!-- CreationDate: Mon Aug 28 09:55:43 2017 -->

<!-- Magnification: 1.050 -->

<svg
   xmlns:dc="http://purl.org/dc/elements/1.1/"
   xmlns:cc="http://creativecommons.org/ns#"
   xmlns:rdf="http://www.w3.org/1999/02/22-rdf-syntax-ns#"
   xmlns:svg="http://www.w3.org/2000/svg"
   xmlns="http://www.w3.org/2000/svg"
   xmlns:sodipodi="http://sodipodi.sourceforge.net/DTD/sodipodi-0.dtd"
   xmlns:inkscape="http://www.inkscape.org/namespaces/inkscape"
   width="392.82581"
   height="336.9624"
   viewBox="2118 2709 5296.5501 4467.5345"
   id="svg2985"
   version="1.1"
   inkscape:version="0.48.5 r10040"
   sodipodi:docname="superelli.svg">
  <metadata
     id="metadata3047">
    <rdf:RDF>
      <cc:Work
         rdf:about="">
        <dc:format>image/svg+xml</dc:format>
        <dc:type
           rdf:resource="http://purl.org/dc/dcmitype/StillImage" />
      </cc:Work>
    </rdf:RDF>
  </metadata>
  <defs
     id="defs3045" />
  <sodipodi:namedview
     pagecolor="#ffffff"
     bordercolor="#666666"
     borderopacity="1"
     objecttolerance="10"
     gridtolerance="10"
     guidetolerance="10"
     inkscape:pageopacity="0"
     inkscape:pageshadow="2"
     inkscape:window-width="1275"
     inkscape:window-height="578"
     id="namedview3043"
     showgrid="false"
     units="mm"
     fit-margin-top="1"
     fit-margin-left="1"
     fit-margin-right="1"
     fit-margin-bottom="2"
     inkscape:zoom="1.1069484"
     inkscape:cx="196.4129"
     inkscape:cy="168.4812"
     inkscape:window-x="0"
     inkscape:window-y="0"
     inkscape:window-maximized="0"
     inkscape:current-layer="svg2985" />
  <g
     style="fill:none;stroke-width:0.025in"
     id="g2987"
     transform="translate(38.775129,1.2746805)">
    <!-- Line -->
    <!--  spline  -->
    <polyline
       points="4765,4729 4765,4728 4764,4726 4764,4721 4763,4719 4763,4718 4762,4717 4762,4714 4760,4711 4758,4708 4754,4705 4753,4704 4752,4703 4751,4702 4748,4699 4745,4697 4744,4696 4743,4696 4742,4695 4739,4693 4734,4692 4731,4691 4729,4691 4727,4691 4726,4691 4724,4692 4720,4692 4718,4693 4717,4693 4714,4695 4712,4695 4709,4697 4706,4699 4703,4702 4702,4703 4701,4704 4700,4705 4698,4708 4696,4711 4695,4712 4695,4713 4693,4714 4692,4718 4691,4722 4690,4725 4690,4727 4690,4729 4690,4730 4691,4733 4691,4738 4692,4741 4692,4742 4693,4743 4693,4745 4696,4748 4698,4751 4700,4754 4701,4755 4702,4756 4703,4758 4706,4761 4709,4763 4711,4764 4713,4765 4717,4766 4721,4767 4723,4768 4725,4768 4727,4768 4728,4768 4730,4767 4735,4767 4738,4766 4739,4766 4740,4765 4742,4765 4745,4763 4748,4761 4751,4758 4752,4756 4753,4755 4754,4754 4758,4751 4760,4748 4761,4747 4762,4745 4763,4742 4764,4738 4765,4734 4765,4731 4765,4729 "
       style="fill:#000000;stroke:#000000;stroke-width:8;stroke-linecap:butt;stroke-linejoin:bevel"
       id="polyline2989" />
    <!-- Line -->
    <!--  polyline  -->
    <polyline
       points="2131,4729 7324,4729 "
       style="stroke:#000000;stroke-width:8;stroke-linecap:butt;stroke-linejoin:round;stroke-dasharray:62, 31, 10, 31"
       id="polyline2991" />
    <!-- Line -->
    <!--  polyline  -->
    <polyline
       points="4727,6738 4727,2722 "
       style="stroke:#000000;stroke-width:8;stroke-linecap:butt;stroke-linejoin:round;stroke-dasharray:62, 31, 10, 31"
       id="polyline2993" />
    <!-- Line -->
    <!--  polyline  -->
    <polyline
       points="7088,4729 7088,4286 7086,4144 7084,4041 7082,3958 7077,3886 7071,3823 7065,3765 7059,3715 7050,3667 7042,3623 7032,3581 7021,3542 7008,3505 6997,3470 6981,3438 6967,3406 6952,3378 6935,3350 6916,3322 6896,3298 6876,3273 6854,3250 6832,3229 6809,3208 6784,3187 6756,3169 6728,3151 6700,3133 6668,3118 6637,3102 6602,3087 6567,3074 6530,3061 6491,3049 6449,3038 6406,3027 6360,3018 6310,3008 6259,3001 6203,2994 6144,2986 6080,2981 6011,2975 5935,2971 5851,2966 5756,2963 5645,2961 5506,2960 5318,2959 4727,2958 4137,2959 3949,2960 3811,2961 3699,2963 3604,2966 3520,2971 3443,2975 3375,2981 3311,2986 3252,2994 3196,3001 3145,3008 3096,3018 3049,3027 3006,3038 2964,3049 2925,3061 2888,3074 2853,3087 2818,3102 2787,3118 2755,3133 2727,3151 2699,3169 2671,3187 2646,3208 2622,3229 2601,3250 2579,3273 2559,3298 2539,3322 2520,3350 2503,3378 2488,3406 2474,3438 2458,3470 2447,3505 2434,3542 2424,3581 2413,3623 2405,3667 2396,3715 2390,3765 2384,3823 2379,3886 2373,3958 2370,4041 2369,4144 2367,4286 2367,4729 2367,5173 2369,5315 2370,5418 2373,5502 2379,5573 2384,5636 2390,5694 2396,5744 2405,5793 2413,5837 2424,5879 2434,5918 2447,5954 2458,5989 2474,6022 2488,6053 2503,6081 2520,6110 2539,6137 2559,6161 2579,6186 2601,6209 2622,6230 2646,6251 2671,6272 2699,6290 2727,6308 2755,6326 2787,6342 2818,6358 2853,6372 2888,6386 2925,6398 2964,6410 3006,6422 3049,6432 3096,6441 3145,6451 3196,6458 3252,6466 3311,6473 3375,6478 3443,6485 3520,6489 3604,6493 3699,6496 3811,6498 3949,6499 4137,6500 4727,6501 5318,6500 5506,6499 5645,6498 5756,6496 5851,6493 5935,6489 6011,6485 6080,6478 6144,6473 6203,6466 6259,6458 6310,6451 6360,6441 6406,6432 6449,6422 6491,6410 6530,6398 6567,6386 6602,6372 6637,6358 6668,6342 6700,6326 6728,6308 6756,6290 6784,6272 6809,6251 6832,6230 6854,6209 6876,6186 6896,6161 6916,6137 6935,6110 6952,6081 6967,6053 6981,6022 6997,5989 7008,5954 7021,5918 7032,5879 7042,5837 7050,5793 7059,5744 7065,5694 7071,5636 7077,5573 7082,5502 7084,5418 7086,5315 7088,5173 7088,4729 "
       style="stroke:#00d100;stroke-width:16;stroke-linecap:butt;stroke-linejoin:round"
       id="polyline2995" />
    <!-- Line -->
    <!--  polyline  -->
    <polyline
       points="7088,4729 7087,4554 7085,4450 7082,4363 7077,4286 7069,4216 7061,4150 7050,4088 7040,4029 7025,3973 7011,3920 6995,3868 6977,3820 6958,3773 6937,3728 6914,3683 6890,3640 6864,3599 6836,3561 6809,3523 6777,3487 6746,3451 6711,3418 6677,3384 6640,3354 6601,3323 6561,3295 6519,3267 6475,3240 6432,3215 6384,3192 6335,3169 6285,3147 6233,3127 6179,3108 6121,3089 6064,3072 6003,3057 5940,3043 5875,3028 5805,3016 5736,3005 5660,2996 5583,2986 5500,2979 5413,2973 5317,2967 5214,2963 5100,2961 4961,2959 4727,2958 4494,2959 4355,2961 4241,2963 4138,2967 4043,2973 3955,2979 3872,2986 3795,2996 3719,3005 3650,3016 3581,3028 3516,3043 3453,3057 3392,3072 3334,3089 3276,3108 3223,3127 3170,3147 3120,3169 3071,3192 3023,3215 2980,3240 2936,3267 2894,3295 2854,3323 2815,3354 2779,3384 2744,3418 2709,3451 2678,3487 2646,3523 2619,3561 2592,3599 2565,3640 2541,3683 2518,3728 2497,3773 2478,3820 2460,3868 2445,3920 2430,3973 2415,4029 2405,4088 2394,4150 2386,4216 2379,4286 2373,4363 2370,4450 2368,4554 2367,4729 2368,4906 2370,5009 2373,5097 2379,5173 2386,5244 2394,5310 2405,5372 2415,5430 2430,5486 2445,5540 2460,5591 2478,5639 2497,5687 2518,5732 2541,5776 2565,5819 2592,5860 2619,5899 2646,5937 2678,5972 2709,6008 2744,6041 2779,6075 2815,6106 2854,6136 2894,6164 2936,6193 2980,6219 3023,6244 3071,6267 3120,6290 3170,6312 3223,6332 3276,6351 3334,6370 3392,6387 3453,6403 3516,6416 3581,6431 3650,6444 3719,6454 3795,6464 3872,6473 3955,6480 4043,6487 4138,6492 4241,6496 4355,6498 4494,6500 4727,6501 4961,6500 5100,6498 5214,6496 5317,6492 5413,6487 5500,6480 5583,6473 5660,6464 5736,6454 5805,6444 5875,6431 5940,6416 6003,6403 6064,6387 6121,6370 6179,6351 6233,6332 6285,6312 6335,6290 6384,6267 6432,6244 6475,6219 6519,6193 6561,6164 6601,6136 6640,6106 6677,6075 6711,6041 6746,6008 6777,5972 6809,5937 6836,5899 6864,5860 6890,5819 6914,5776 6937,5732 6958,5687 6977,5639 6995,5591 7011,5540 7025,5486 7040,5430 7050,5372 7061,5310 7069,5244 7077,5173 7082,5097 7085,5009 7087,4906 7088,4729 "
       style="stroke:#008f00;stroke-width:16;stroke-linecap:butt;stroke-linejoin:round"
       id="polyline2997" />
    <!-- Line -->
    <!--  polyline  -->
    <polyline
       points="7088,4729 7087,4674 7084,4619 7079,4562 7070,4508 7060,4453 7046,4397 7032,4344 7015,4288 6995,4236 6973,4182 6949,4130 6922,4077 6895,4027 6864,3975 6832,3926 6796,3876 6760,3827 6722,3781 6681,3734 6638,3689 6594,3644 6546,3601 6498,3558 6449,3517 6396,3477 6344,3438 6288,3401 6233,3364 6175,3330 6115,3297 6054,3265 5992,3234 5928,3205 5864,3177 5799,3151 5733,3127 5665,3104 5596,3083 5526,3063 5457,3045 5385,3028 5314,3014 5241,3001 5169,2990 5096,2980 5022,2973 4950,2965 4874,2961 4801,2959 4727,2958 4655,2959 4580,2961 4506,2965 4433,2973 4360,2980 4285,2990 4214,3001 4141,3014 4070,3028 3998,3045 3928,3063 3859,3083 3791,3104 3722,3127 3656,3151 3591,3177 3527,3205 3463,3234 3401,3265 3340,3297 3280,3330 3223,3364 3167,3401 3111,3438 3059,3477 3006,3517 2957,3558 2909,3601 2861,3644 2817,3689 2774,3734 2733,3781 2696,3827 2659,3876 2623,3926 2592,3975 2560,4027 2533,4077 2507,4130 2482,4182 2460,4236 2440,4288 2424,4344 2409,4397 2395,4453 2385,4508 2376,4562 2371,4619 2368,4674 2367,4729 2368,4786 2371,4840 2376,4897 2385,4952 2395,5006 2409,5062 2424,5116 2440,5171 2460,5224 2482,5277 2507,5330 2533,5382 2560,5433 2592,5484 2623,5533 2659,5584 2696,5632 2733,5678 2774,5725 2817,5771 2861,5816 2909,5859 2957,5902 3006,5943 3059,5983 3111,6022 3167,6058 3223,6095 3280,6130 3340,6162 3401,6195 3463,6225 3527,6255 3591,6282 3656,6308 3722,6332 3791,6355 3859,6376 3928,6396 3998,6414 4070,6431 4141,6446 4214,6458 4285,6470 4360,6479 4433,6487 4506,6494 4580,6498 4655,6500 4727,6501 4801,6500 4874,6498 4950,6494 5022,6487 5096,6479 5169,6470 5241,6458 5314,6446 5385,6431 5457,6414 5526,6396 5596,6376 5665,6355 5733,6332 5799,6308 5864,6282 5928,6255 5992,6225 6054,6195 6115,6162 6175,6130 6233,6095 6288,6058 6344,6022 6396,5983 6449,5943 6498,5902 6546,5859 6594,5816 6638,5771 6681,5725 6722,5678 6760,5632 6796,5584 6832,5533 6864,5484 6895,5433 6922,5382 6949,5330 6973,5277 6995,5224 7015,5171 7032,5116 7046,5062 7060,5006 7070,4952 7079,4897 7084,4840 7087,4786 7088,4729 "
       style="stroke:#ff0000;stroke-width:32;stroke-linecap:butt;stroke-linejoin:round"
       id="polyline2999" />
    <!-- Line -->
    <!--  polyline  -->
    <polyline
       points="7088,4729 7087,4712 7083,4686 7075,4654 7064,4619 7049,4581 7033,4540 7014,4498 6991,4453 6964,4407 6936,4360 6904,4311 6870,4263 6833,4213 6793,4162 6751,4112 6707,4060 6661,4010 6612,3959 6560,3908 6508,3858 6452,3807 6395,3758 6337,3709 6277,3660 6215,3614 6152,3568 6088,3522 6023,3479 5956,3436 5889,3394 5822,3355 5755,3316 5687,3279 5618,3244 5550,3211 5484,3179 5417,3150 5350,3122 5285,3097 5220,3072 5158,3050 5096,3032 5037,3015 4979,3000 4925,2986 4874,2977 4828,2969 4786,2962 4750,2959 4727,2958 4705,2959 4669,2962 4627,2969 4580,2977 4530,2986 4475,3000 4418,3015 4360,3032 4298,3050 4235,3072 4171,3097 4106,3122 4038,3150 3971,3179 3905,3211 3837,3244 3769,3279 3700,3316 3633,3355 3566,3394 3499,3436 3433,3479 3367,3522 3303,3568 3240,3614 3179,3660 3119,3709 3060,3758 3003,3807 2948,3858 2895,3908 2844,3959 2794,4010 2748,4060 2704,4112 2662,4162 2622,4213 2585,4263 2551,4311 2519,4360 2491,4407 2465,4453 2441,4498 2423,4540 2406,4581 2391,4619 2381,4654 2372,4686 2368,4712 2367,4729 2368,4747 2372,4773 2381,4806 2391,4840 2406,4878 2423,4919 2441,4961 2465,5006 2491,5053 2519,5100 2551,5148 2585,5196 2622,5247 2662,5297 2704,5348 2748,5399 2794,5449 2844,5501 2895,5551 2948,5602 3003,5652 3060,5701 3119,5751 3179,5799 3240,5845 3303,5891 3367,5938 3433,5981 3499,6024 3566,6066 3633,6104 3700,6143 3769,6180 3837,6216 3905,6248 3971,6281 4038,6309 4106,6338 4171,6363 4235,6387 4298,6409 4360,6428 4418,6445 4475,6459 4530,6473 4580,6482 4627,6491 4669,6497 4705,6500 4727,6501 4750,6500 4786,6497 4828,6491 4874,6482 4925,6473 4979,6459 5037,6445 5096,6428 5158,6409 5220,6387 5285,6363 5350,6338 5417,6309 5484,6281 5550,6248 5618,6216 5687,6180 5755,6143 5822,6104 5889,6066 5956,6024 6023,5981 6088,5938 6152,5891 6215,5845 6277,5799 6337,5751 6395,5701 6452,5652 6508,5602 6560,5551 6612,5501 6661,5449 6707,5399 6751,5348 6793,5297 6833,5247 6870,5196 6904,5148 6936,5100 6964,5053 6991,5006 7014,4961 7033,4919 7049,4878 7064,4840 7075,4806 7083,4773 7087,4747 7088,4729 "
       style="stroke:#0000ff;stroke-width:16;stroke-linecap:butt;stroke-linejoin:round"
       id="polyline3001" />
    <!-- Line -->
    <!--  polyline  -->
    <polyline
       points="7088,4729 7086,4728 7080,4723 7067,4713 7051,4702 7032,4687 7005,4667 6977,4645 6942,4620 6904,4592 6864,4561 6817,4527 6769,4490 6716,4451 6661,4409 6601,4365 6540,4319 6476,4270 6411,4221 6343,4170 6272,4118 6201,4064 6129,4010 6055,3954 5982,3900 5907,3844 5834,3787 5759,3733 5687,3677 5613,3624 5543,3571 5472,3518 5404,3466 5338,3418 5274,3369 5213,3323 5154,3279 5100,3237 5046,3197 4998,3162 4952,3128 4911,3096 4873,3067 4838,3043 4810,3021 4785,3002 4764,2985 4748,2974 4735,2964 4728,2960 4727,2958 4727,2960 4720,2964 4707,2974 4691,2985 4670,3002 4645,3021 4617,3043 4582,3067 4544,3096 4503,3128 4457,3162 4409,3197 4355,3237 4301,3279 4242,3323 4180,3369 4117,3418 4051,3466 3983,3518 3912,3571 3842,3624 3769,3677 3696,3733 3622,3787 3548,3844 3474,3900 3400,3954 3327,4010 3254,4064 3183,4118 3112,4170 3044,4221 2979,4270 2915,4319 2854,4365 2794,4409 2740,4451 2686,4490 2638,4527 2592,4561 2551,4592 2513,4620 2478,4645 2450,4667 2424,4687 2404,4702 2388,4713 2375,4723 2369,4728 2367,4729 2369,4731 2375,4737 2388,4746 2404,4758 2424,4772 2450,4792 2478,4814 2513,4839 2551,4868 2592,4898 2638,4933 2686,4970 2740,5008 2794,5050 2854,5095 2915,5141 2979,5189 3044,5238 3112,5290 3183,5341 3254,5396 3327,5449 3400,5505 3474,5560 3548,5615 3622,5672 3696,5727 3769,5782 3842,5836 3912,5888 3983,5942 4051,5993 4117,6041 4180,6091 4242,6136 4301,6180 4355,6222 4409,6262 4457,6298 4503,6331 4544,6364 4582,6392 4617,6416 4645,6438 4670,6457 4691,6474 4707,6486 4720,6495 4727,6499 4727,6501 4728,6499 4735,6495 4748,6486 4764,6474 4785,6457 4810,6438 4838,6416 4873,6392 4911,6364 4952,6331 4998,6298 5046,6262 5100,6222 5154,6180 5213,6136 5274,6091 5338,6041 5404,5993 5472,5942 5543,5888 5613,5836 5687,5782 5759,5727 5834,5672 5907,5615 5982,5560 6055,5505 6129,5449 6201,5396 6272,5341 6343,5290 6411,5238 6476,5189 6540,5141 6601,5095 6661,5050 6716,5008 6769,4970 6817,4933 6864,4898 6904,4868 6942,4839 6977,4814 7005,4792 7032,4772 7051,4758 7067,4746 7080,4737 7086,4731 7088,4729 "
       style="stroke:#0000b0;stroke-width:32;stroke-linecap:butt;stroke-linejoin:round"
       id="polyline3003" />
    <!-- Line -->
    <!--  polyline  -->
    <polyline
       points="7088,4729 7085,4729 7076,4729 7059,4728 7036,4725 7006,4721 6972,4714 6930,4707 6882,4697 6831,4684 6773,4667 6711,4649 6645,4627 6576,4603 6501,4576 6426,4543 6347,4510 6265,4473 6183,4432 6099,4388 6015,4342 5931,4292 5848,4241 5765,4185 5683,4130 5604,4072 5526,4012 5451,3951 5379,3888 5310,3825 5244,3762 5182,3699 5124,3637 5069,3575 5020,3514 4975,3456 4933,3399 4895,3342 4862,3291 4833,3240 4809,3194 4788,3151 4770,3112 4758,3077 4747,3046 4739,3020 4732,2998 4729,2981 4727,2967 4727,2961 4727,2958 4727,2961 4727,2967 4726,2981 4723,2998 4717,3020 4708,3046 4698,3077 4685,3112 4667,3151 4646,3194 4622,3240 4593,3291 4559,3342 4522,3399 4480,3456 4435,3514 4386,3575 4331,3637 4274,3699 4212,3762 4145,3825 4076,3888 4004,3951 3928,4012 3851,4072 3772,4130 3690,4185 3607,4241 3524,4292 3440,4342 3356,4388 3272,4432 3190,4473 3108,4510 3029,4543 2954,4576 2879,4603 2810,4627 2744,4649 2682,4667 2624,4684 2573,4697 2525,4707 2483,4714 2449,4721 2419,4725 2396,4728 2380,4729 2370,4729 2367,4729 2370,4729 2380,4729 2396,4731 2419,4734 2449,4739 2483,4745 2525,4752 2573,4763 2624,4775 2682,4792 2744,4810 2810,4832 2879,4856 2954,4883 3029,4916 3108,4950 3190,4986 3272,5027 3356,5071 3440,5118 3524,5167 3607,5218 3690,5274 3772,5330 3851,5387 3928,5447 4004,5508 4076,5571 4145,5634 4212,5697 4274,5760 4331,5822 4386,5884 4435,5945 4480,6004 4522,6060 4559,6117 4593,6169 4622,6219 4646,6265 4667,6308 4685,6347 4698,6383 4708,6413 4717,6439 4723,6461 4726,6478 4727,6492 4727,6498 4727,6501 4727,6498 4727,6492 4729,6478 4732,6461 4739,6439 4747,6413 4758,6383 4770,6347 4788,6308 4809,6265 4833,6219 4862,6169 4895,6117 4933,6060 4975,6004 5020,5945 5069,5884 5124,5822 5182,5760 5244,5697 5310,5634 5379,5571 5451,5508 5526,5447 5604,5387 5683,5330 5765,5274 5848,5218 5931,5167 6015,5118 6099,5071 6183,5027 6265,4986 6347,4950 6426,4916 6501,4883 6576,4856 6645,4832 6711,4810 6773,4792 6831,4775 6882,4763 6930,4752 6972,4745 7006,4739 7036,4734 7059,4731 7076,4729 7085,4729 7088,4729 "
       style="stroke:#8f008f;stroke-width:16;stroke-linecap:butt;stroke-linejoin:round"
       id="polyline3005" />
    <!-- Line -->
    <!--  polyline  -->
    <polyline
       points="7088,4729 7084,4729 7070,4729 7047,4729 7015,4729 6975,4729 6925,4728 6870,4726 6806,4723 6735,4719 6660,4713 6578,4707 6492,4697 6403,4686 6309,4671 6216,4655 6119,4635 6023,4611 5926,4583 5832,4553 5738,4518 5648,4479 5559,4437 5475,4391 5394,4341 5317,4287 5246,4229 5179,4169 5117,4104 5061,4038 5008,3971 4962,3901 4921,3829 4886,3758 4853,3685 4827,3614 4804,3542 4786,3472 4769,3405 4758,3341 4748,3280 4741,3223 4735,3171 4731,3123 4729,3081 4727,3044 4727,3014 4727,2990 4727,2973 4727,2961 4727,2958 4727,2961 4727,2973 4727,2990 4727,3014 4727,3044 4726,3081 4724,3123 4720,3171 4714,3223 4706,3280 4698,3341 4685,3405 4669,3472 4651,3542 4628,3614 4601,3685 4570,3758 4534,3829 4493,3901 4447,3971 4394,4038 4339,4104 4277,4169 4209,4229 4138,4287 4061,4341 3981,4391 3897,4437 3807,4479 3717,4518 3624,4553 3528,4583 3433,4611 3336,4635 3239,4655 3146,4671 3053,4686 2963,4697 2877,4707 2795,4713 2720,4719 2649,4723 2585,4726 2530,4728 2480,4729 2440,4729 2408,4729 2385,4729 2371,4729 2367,4729 2371,4729 2385,4729 2408,4729 2440,4729 2480,4730 2530,4731 2585,4733 2649,4737 2720,4741 2795,4746 2877,4752 2963,4763 3053,4773 3146,4788 3239,4805 3336,4825 3433,4849 3528,4876 3624,4907 3717,4941 3807,4980 3897,5022 3981,5068 4061,5119 4138,5172 4209,5230 4277,5291 4339,5355 4394,5421 4447,5488 4493,5559 4534,5630 4570,5701 4601,5775 4628,5845 4651,5918 4669,5987 4685,6054 4698,6118 4706,6179 4714,6237 4720,6288 4724,6337 4726,6379 4727,6415 4727,6446 4727,6470 4727,6487 4727,6498 4727,6501 4727,6498 4727,6487 4727,6470 4727,6446 4727,6415 4729,6379 4731,6337 4735,6288 4741,6237 4748,6179 4758,6118 4769,6054 4786,5987 4804,5918 4827,5845 4853,5775 4886,5701 4921,5630 4962,5559 5008,5488 5061,5421 5117,5355 5179,5291 5246,5230 5317,5172 5394,5119 5475,5068 5559,5022 5648,4980 5738,4941 5832,4907 5926,4876 6023,4849 6119,4825 6216,4805 6309,4788 6403,4773 6492,4763 6578,4752 6660,4746 6735,4741 6806,4737 6870,4733 6925,4731 6975,4730 7015,4729 7047,4729 7070,4729 7084,4729 7088,4729 "
       style="stroke:#d100d1;stroke-width:16;stroke-linecap:butt;stroke-linejoin:round"
       id="polyline3007" />
    <!-- Line -->
    <!--  polyline  -->
    <polyline
       points="7088,4729 7082,4729 7058,4729 7020,4729 6967,4729 6901,4729 6824,4729 6734,4729 6637,4729 6530,4729 6416,4729 6301,4729 6180,4728 6059,4726 5940,4724 5821,4721 5706,4716 5595,4709 5490,4702 5393,4691 5301,4679 5217,4662 5142,4642 5074,4618 5014,4587 4960,4554 4916,4515 4876,4470 4844,4417 4816,4362 4794,4299 4777,4229 4764,4156 4752,4077 4745,3994 4739,3908 4734,3821 4731,3730 4729,3639 4728,3550 4727,3462 4727,3378 4727,3298 4727,3224 4727,3156 4727,3099 4727,3049 4727,3009 4727,2982 4727,2963 4727,2958 4727,2963 4727,2982 4727,3009 4727,3049 4727,3099 4727,3156 4727,3224 4727,3298 4727,3378 4727,3462 4727,3550 4726,3639 4724,3730 4721,3821 4717,3908 4710,3994 4703,4077 4691,4156 4678,4229 4661,4299 4639,4362 4612,4417 4579,4470 4539,4515 4495,4554 4441,4587 4382,4618 4313,4642 4238,4662 4154,4679 4062,4691 3965,4702 3860,4709 3750,4716 3633,4721 3516,4724 3396,4726 3275,4728 3154,4729 3039,4729 2925,4729 2818,4729 2721,4729 2632,4729 2554,4729 2488,4729 2435,4729 2397,4729 2373,4729 2367,4729 2373,4729 2397,4729 2435,4729 2488,4729 2554,4729 2632,4729 2721,4729 2818,4729 2925,4729 3039,4729 3154,4730 3275,4731 3396,4733 3516,4735 3633,4739 3750,4744 3860,4750 3965,4758 4062,4768 4154,4781 4238,4797 4313,4817 4382,4841 4441,4872 4495,4906 4539,4944 4579,4990 4612,5042 4639,5098 4661,5161 4678,5230 4691,5303 4703,5382 4710,5465 4717,5551 4721,5638 4724,5730 4726,5820 4727,5909 4727,5997 4727,6081 4727,6161 4727,6236 4727,6303 4727,6361 4727,6410 4727,6450 4727,6477 4727,6496 4727,6501 4727,6496 4727,6477 4727,6450 4727,6410 4727,6361 4727,6303 4727,6236 4727,6161 4727,6081 4727,5997 4728,5909 4729,5820 4731,5730 4734,5638 4739,5551 4745,5465 4752,5382 4764,5303 4777,5230 4794,5161 4816,5098 4844,5042 4876,4990 4916,4944 4960,4906 5014,4872 5074,4841 5142,4817 5217,4797 5301,4781 5393,4768 5490,4758 5595,4750 5706,4744 5821,4739 5940,4735 6059,4733 6180,4731 6301,4730 6416,4729 6530,4729 6637,4729 6734,4729 6824,4729 6901,4729 6967,4729 7020,4729 7058,4729 7082,4729 7088,4729 "
       style="stroke:#ff00ff;stroke-width:16;stroke-linecap:butt;stroke-linejoin:round"
       id="polyline3009" />
    <!-- Text -->
    <text
       xml:space="preserve"
       x="6425"
       y="7086"
       font-style="normal"
       font-weight="normal"
       font-size="227"
       id="text3011"
       style="font-size:227px;font-style:normal;font-weight:normal;text-anchor:start;fill:#000000;font-family:Times">,</text>
    <!-- Text -->
    <text
       xml:space="preserve"
       x="5763"
       y="7086"
       font-style="normal"
       font-weight="normal"
       font-size="227"
       id="text3013"
       style="font-size:227px;font-style:normal;font-weight:normal;text-anchor:start;fill:#000000;font-family:Times">,</text>
    <!-- Text -->
    <text
       xml:space="preserve"
       x="5149"
       y="7086"
       font-style="normal"
       font-weight="normal"
       font-size="227"
       id="text3015"
       style="font-size:227px;font-style:normal;font-weight:normal;text-anchor:start;fill:#000000;font-family:Times">,</text>
    <!-- Text -->
    <text
       xml:space="preserve"
       x="4771"
       y="7086"
       font-style="normal"
       font-weight="normal"
       font-size="227"
       id="text3017"
       style="font-size:227px;font-style:normal;font-weight:normal;text-anchor:start;fill:#000000;font-family:Times">,</text>
    <!-- Text -->
    <text
       xml:space="preserve"
       x="4157"
       y="7086"
       font-style="normal"
       font-weight="normal"
       font-size="227"
       id="text3019"
       style="font-size:227px;font-style:normal;font-weight:normal;text-anchor:start;fill:#000000;font-family:Times">,</text>
    <!-- Text -->
    <text
       xml:space="preserve"
       x="3732"
       y="7086"
       font-style="normal"
       font-weight="normal"
       font-size="227"
       id="text3021"
       style="font-size:227px;font-style:normal;font-weight:normal;text-anchor:start;fill:#000000;font-family:Times">,</text>
    <!-- Text -->
    <text
       xml:space="preserve"
       x="3496"
       y="7086"
       font-style="normal"
       font-weight="normal"
       font-size="227"
       id="text3023"
       style="font-size:227px;font-style:normal;font-weight:normal;text-anchor:start;fill:#008f00;font-family:Times">3</text>
    <!-- Text -->
    <text
       xml:space="preserve"
       x="3354"
       y="7086"
       font-style="normal"
       font-weight="normal"
       font-size="227"
       id="text3025"
       style="font-size:227px;font-style:normal;font-weight:normal;text-anchor:start;fill:#000000;font-family:Times">,</text>
    <!-- Text -->
    <text
       xml:space="preserve"
       x="2551"
       y="7086"
       font-style="normal"
       font-weight="normal"
       font-size="227"
       id="text3027"
       style="font-size:227px;font-style:normal;font-weight:normal;text-anchor:start;fill:#000000;font-family:Times">n =</text>
    <!-- Text -->
    <text
       xml:space="preserve"
       x="3118"
       y="7086"
       font-style="normal"
       font-weight="normal"
       font-size="227"
       id="text3029"
       style="font-size:227px;font-style:normal;font-weight:normal;text-anchor:start;fill:#00d100;font-family:Times">5 </text>
    <!-- Text -->
    <text
       xml:space="preserve"
       x="3921"
       y="7086"
       font-style="normal"
       font-weight="bold"
       font-size="227"
       id="text3031"
       style="font-size:227px;font-style:normal;font-weight:bold;text-anchor:start;fill:#ff0000;font-family:Times">2</text>
    <!-- Text -->
    <text
       xml:space="preserve"
       x="4299"
       y="7086"
       font-style="normal"
       font-weight="normal"
       font-size="227"
       id="text3033"
       style="font-size:227px;font-style:normal;font-weight:normal;text-anchor:start;fill:#0000ff;font-family:Times">1.5</text>
    <!-- Text -->
    <text
       xml:space="preserve"
       x="5338"
       y="7086"
       font-style="normal"
       font-weight="normal"
       font-size="227"
       id="text3035"
       style="font-size:227px;font-style:normal;font-weight:normal;text-anchor:start;fill:#8f008f;font-family:Times">0.7</text>
    <!-- Text -->
    <text
       xml:space="preserve"
       x="5952"
       y="7086"
       font-style="normal"
       font-weight="normal"
       font-size="227"
       id="text3037"
       style="font-size:227px;font-style:normal;font-weight:normal;text-anchor:start;fill:#d100d1;font-family:Times">0.5</text>
    <!-- Text -->
    <text
       xml:space="preserve"
       x="6614"
       y="7086"
       font-style="normal"
       font-weight="normal"
       font-size="227"
       id="text3039"
       style="font-size:227px;font-style:normal;font-weight:normal;text-anchor:start;fill:#ff00ff;font-family:Times">0.3</text>
    <!-- Text -->
    <text
       xml:space="preserve"
       x="4960"
       y="7086"
       font-style="normal"
       font-weight="bold"
       font-size="227"
       id="text3041"
       style="font-size:227px;font-style:normal;font-weight:bold;text-anchor:start;fill:#0000b0;font-family:Times">1</text>
  </g>
</svg>
